<svg width="104" height="44" viewBox="0 0 104 44" fill="none" xmlns="http://www.w3.org/2000/svg">
<path d="M25.2455 41.5264C24.2457 40.7988 23.6347 39.6342 23.7611 38.4042C23.9448 36.6167 24.3396 34.836 24.7396 33.3949C25.198 31.7433 25.5372 30.0494 25.5372 28.3353V26.5278C25.5372 25.6062 25.4588 24.6862 25.3028 23.7779C25.042 22.2595 24.5665 20.7859 23.8906 19.4015L22.0851 15.703L19.8806 11.9002C19.47 11.1919 19.1764 10.422 19.0111 9.62015L18.7745 8.47235C18.4849 7.06753 18.8117 5.60598 19.672 4.45824C20.4171 3.46409 21.5052 2.78246 22.7249 2.54577L24.0758 2.2836C25.0429 2.09594 26.035 2.07626 27.0087 2.22544L29.3882 2.58999C30.7929 2.8052 32.174 3.15332 33.5129 3.62967L35.612 4.37651C39.1341 5.62957 42.4896 7.30862 45.6041 9.37627L48.5522 11.3335C51.401 13.2248 54.0154 15.4472 56.3408 17.9543L57.9642 19.7045C58.3138 20.0814 58.6355 20.4834 58.9267 20.9072C59.8768 22.29 60.4841 23.8792 60.6985 25.5432L60.8467 26.6936C60.9482 27.4814 60.9182 28.2805 60.7578 29.0584C60.5052 30.2839 59.9365 31.4219 59.1082 32.3596L58.4894 33.0602C56.004 35.4717 53.0599 37.3599 49.8315 38.6129L45.3085 40.3684L42.6145 41.0722C38.9857 42.0202 35.2505 42.5 31.5 42.5L27.3001 42.2603C26.559 42.218 25.8457 41.9632 25.2455 41.5264Z" fill="white" stroke="white" stroke-width="3"/>
<path d="M14.8243 18.3121C15.0568 18.1993 15.2508 18.0203 15.3819 17.7976L15.8408 17.0185C16.2306 16.3566 16.4362 15.6024 16.4362 14.8343V14.1805V13.9256C16.4362 13.1152 16.108 12.3394 15.5264 11.7751C15.2975 11.553 15.0346 11.3689 14.7477 11.2297L13.9687 10.8518C13.5224 10.6352 13.0961 10.3795 12.695 10.0876L12.0426 9.61278L10.5726 8.66189C10.303 8.48751 9.98877 8.39474 9.66771 8.39474C9.37323 8.39474 9.08401 8.31668 8.82951 8.16852L8.43351 7.93797C7.91965 7.63881 7.33568 7.4812 6.74109 7.4812H5.45213H3.88298C3.12334 7.4812 2.43418 7.95054 2.14466 8.65284C2.05005 8.88235 2 9.1315 2 9.37974V9.59676C2 10.2022 2.18353 10.7934 2.52639 11.2925L2.62766 11.4398L4.19681 13.2669L7.02128 16.0075L8.59043 17.2256L9.27839 17.6261C9.86169 17.9657 10.4979 18.2048 11.1605 18.3333C11.5385 18.4067 11.9225 18.4436 12.3075 18.4436H13.2979H14.2518C14.4502 18.4436 14.6459 18.3986 14.8243 18.3121Z" fill="white" stroke="white"/>
<path d="M33.795 31.12C33.105 31.12 32.44 31.04 31.8 30.88C31.17 30.71 30.67 30.5 30.3 30.25L31.08 28.57C31.45 28.8 31.885 28.99 32.385 29.14C32.895 29.28 33.395 29.35 33.885 29.35C34.425 29.35 34.805 29.285 35.025 29.155C35.255 29.025 35.37 28.845 35.37 28.615C35.37 28.425 35.28 28.285 35.1 28.195C34.93 28.095 34.7 28.02 34.41 27.97C34.12 27.92 33.8 27.87 33.45 27.82C33.11 27.77 32.765 27.705 32.415 27.625C32.065 27.535 31.745 27.405 31.455 27.235C31.165 27.065 30.93 26.835 30.75 26.545C30.58 26.255 30.495 25.88 30.495 25.42C30.495 24.91 30.64 24.46 30.93 24.07C31.23 23.68 31.66 23.375 32.22 23.155C32.78 22.925 33.45 22.81 34.23 22.81C34.78 22.81 35.34 22.87 35.91 22.99C36.48 23.11 36.955 23.285 37.335 23.515L36.555 25.18C36.165 24.95 35.77 24.795 35.37 24.715C34.98 24.625 34.6 24.58 34.23 24.58C33.71 24.58 33.33 24.65 33.09 24.79C32.85 24.93 32.73 25.11 32.73 25.33C32.73 25.53 32.815 25.68 32.985 25.78C33.165 25.88 33.4 25.96 33.69 26.02C33.98 26.08 34.295 26.135 34.635 26.185C34.985 26.225 35.335 26.29 35.685 26.38C36.035 26.47 36.35 26.6 36.63 26.77C36.92 26.93 37.155 27.155 37.335 27.445C37.515 27.725 37.605 28.095 37.605 28.555C37.605 29.055 37.455 29.5 37.155 29.89C36.855 30.27 36.42 30.57 35.85 30.79C35.29 31.01 34.605 31.12 33.795 31.12ZM42.4538 31.12C41.7838 31.12 41.1838 30.99 40.6538 30.73C40.1338 30.47 39.7288 30.075 39.4388 29.545C39.1488 29.005 39.0038 28.32 39.0038 27.49V22.93H41.3438V27.145C41.3438 27.815 41.4838 28.31 41.7638 28.63C42.0538 28.94 42.4588 29.095 42.9788 29.095C43.3388 29.095 43.6588 29.02 43.9388 28.87C44.2188 28.71 44.4388 28.47 44.5988 28.15C44.7588 27.82 44.8388 27.41 44.8388 26.92V22.93H47.1788V31H44.9588V28.78L45.3638 29.425C45.0938 29.985 44.6938 30.41 44.1638 30.7C43.6438 30.98 43.0738 31.12 42.4538 31.12ZM49.3466 31V22.93H51.6866V31H49.3466ZM50.5166 21.805C50.0866 21.805 49.7366 21.68 49.4666 21.43C49.1966 21.18 49.0616 20.87 49.0616 20.5C49.0616 20.13 49.1966 19.82 49.4666 19.57C49.7366 19.32 50.0866 19.195 50.5166 19.195C50.9466 19.195 51.2966 19.315 51.5666 19.555C51.8366 19.785 51.9716 20.085 51.9716 20.455C51.9716 20.845 51.8366 21.17 51.5666 21.43C51.3066 21.68 50.9566 21.805 50.5166 21.805ZM57.1583 31.12C56.2083 31.12 55.4683 30.88 54.9383 30.4C54.4083 29.91 54.1433 29.185 54.1433 28.225V21.145H56.4833V28.195C56.4833 28.535 56.5733 28.8 56.7533 28.99C56.9333 29.17 57.1783 29.26 57.4883 29.26C57.8583 29.26 58.1733 29.16 58.4333 28.96L59.0633 30.61C58.8233 30.78 58.5333 30.91 58.1933 31C57.8633 31.08 57.5183 31.12 57.1583 31.12ZM52.8983 24.91V23.11H58.4933V24.91H52.8983Z" fill="#FF6E0E"/>
<path d="M73.132 24.448C73.644 24.448 74.096 24.552 74.488 24.76C74.888 24.96 75.2 25.272 75.424 25.696C75.656 26.112 75.772 26.648 75.772 27.304V31H73.9V27.592C73.9 27.072 73.792 26.688 73.576 26.44C73.36 26.192 73.056 26.068 72.664 26.068C72.392 26.068 72.148 26.132 71.932 26.26C71.716 26.38 71.548 26.564 71.428 26.812C71.308 27.06 71.248 27.376 71.248 27.76V31H69.376V27.592C69.376 27.072 69.268 26.688 69.052 26.44C68.844 26.192 68.544 26.068 68.152 26.068C67.88 26.068 67.636 26.132 67.42 26.26C67.204 26.38 67.036 26.564 66.916 26.812C66.796 27.06 66.736 27.376 66.736 27.76V31H64.864V24.544H66.652V26.308L66.316 25.792C66.54 25.352 66.856 25.02 67.264 24.796C67.68 24.564 68.152 24.448 68.68 24.448C69.272 24.448 69.788 24.6 70.228 24.904C70.676 25.2 70.972 25.656 71.116 26.272L70.456 26.092C70.672 25.588 71.016 25.188 71.488 24.892C71.968 24.596 72.516 24.448 73.132 24.448ZM80.7008 31.096C79.9648 31.096 79.3168 30.952 78.7568 30.664C78.2048 30.376 77.7768 29.984 77.4728 29.488C77.1688 28.984 77.0168 28.412 77.0168 27.772C77.0168 27.124 77.1648 26.552 77.4608 26.056C77.7648 25.552 78.1768 25.16 78.6968 24.88C79.2168 24.592 79.8048 24.448 80.4608 24.448C81.0928 24.448 81.6608 24.584 82.1648 24.856C82.6768 25.12 83.0808 25.504 83.3768 26.008C83.6728 26.504 83.8208 27.1 83.8208 27.796C83.8208 27.868 83.8168 27.952 83.8088 28.048C83.8008 28.136 83.7928 28.22 83.7848 28.3H78.5408V27.208H82.8008L82.0808 27.532C82.0808 27.196 82.0128 26.904 81.8768 26.656C81.7408 26.408 81.5528 26.216 81.3128 26.08C81.0728 25.936 80.7928 25.864 80.4728 25.864C80.1528 25.864 79.8688 25.936 79.6208 26.08C79.3808 26.216 79.1928 26.412 79.0568 26.668C78.9208 26.916 78.8528 27.212 78.8528 27.556V27.844C78.8528 28.196 78.9288 28.508 79.0808 28.78C79.2408 29.044 79.4608 29.248 79.7408 29.392C80.0288 29.528 80.3648 29.596 80.7488 29.596C81.0928 29.596 81.3928 29.544 81.6488 29.44C81.9128 29.336 82.1528 29.18 82.3688 28.972L83.3648 30.052C83.0688 30.388 82.6968 30.648 82.2488 30.832C81.8008 31.008 81.2848 31.096 80.7008 31.096ZM87.8391 31.096C87.2311 31.096 86.6831 30.96 86.1951 30.688C85.7071 30.408 85.3191 30.02 85.0311 29.524C84.7511 29.028 84.6111 28.444 84.6111 27.772C84.6111 27.092 84.7511 26.504 85.0311 26.008C85.3191 25.512 85.7071 25.128 86.1951 24.856C86.6831 24.584 87.2311 24.448 87.8391 24.448C88.3831 24.448 88.8591 24.568 89.2671 24.808C89.6751 25.048 89.9911 25.412 90.2151 25.9C90.4391 26.388 90.5511 27.012 90.5511 27.772C90.5511 28.524 90.4431 29.148 90.2271 29.644C90.0111 30.132 89.6991 30.496 89.2911 30.736C88.8911 30.976 88.4071 31.096 87.8391 31.096ZM88.1631 29.56C88.4671 29.56 88.7431 29.488 88.9911 29.344C89.2391 29.2 89.4351 28.996 89.5791 28.732C89.7311 28.46 89.8071 28.14 89.8071 27.772C89.8071 27.396 89.7311 27.076 89.5791 26.812C89.4351 26.548 89.2391 26.344 88.9911 26.2C88.7431 26.056 88.4671 25.984 88.1631 25.984C87.8511 25.984 87.5711 26.056 87.3231 26.2C87.0751 26.344 86.8751 26.548 86.7231 26.812C86.5791 27.076 86.5071 27.396 86.5071 27.772C86.5071 28.14 86.5791 28.46 86.7231 28.732C86.8751 28.996 87.0751 29.2 87.3231 29.344C87.5711 29.488 87.8511 29.56 88.1631 29.56ZM89.8551 31V29.68L89.8911 27.76L89.7711 25.852V22.096H91.6431V31H89.8551ZM93.3757 31V24.544H95.2477V31H93.3757ZM94.3117 23.644C93.9677 23.644 93.6877 23.544 93.4717 23.344C93.2557 23.144 93.1477 22.896 93.1477 22.6C93.1477 22.304 93.2557 22.056 93.4717 21.856C93.6877 21.656 93.9677 21.556 94.3117 21.556C94.6557 21.556 94.9357 21.652 95.1517 21.844C95.3677 22.028 95.4757 22.268 95.4757 22.564C95.4757 22.876 95.3677 23.136 95.1517 23.344C94.9437 23.544 94.6637 23.644 94.3117 23.644ZM100.945 31V29.74L100.825 29.464V27.208C100.825 26.808 100.701 26.496 100.453 26.272C100.213 26.048 99.8411 25.936 99.3371 25.936C98.9931 25.936 98.6531 25.992 98.3171 26.104C97.9891 26.208 97.7091 26.352 97.4771 26.536L96.8051 25.228C97.1571 24.98 97.5811 24.788 98.0771 24.652C98.5731 24.516 99.0771 24.448 99.5891 24.448C100.573 24.448 101.337 24.68 101.881 25.144C102.425 25.608 102.697 26.332 102.697 27.316V31H100.945ZM98.9771 31.096C98.4731 31.096 98.0411 31.012 97.6811 30.844C97.3211 30.668 97.0451 30.432 96.8531 30.136C96.6611 29.84 96.5651 29.508 96.5651 29.14C96.5651 28.756 96.6571 28.42 96.8411 28.132C97.0331 27.844 97.3331 27.62 97.7411 27.46C98.1491 27.292 98.6811 27.208 99.3371 27.208H101.053V28.3H99.5411C99.1011 28.3 98.7971 28.372 98.6291 28.516C98.4691 28.66 98.3891 28.84 98.3891 29.056C98.3891 29.296 98.4811 29.488 98.6651 29.632C98.8571 29.768 99.1171 29.836 99.4451 29.836C99.7571 29.836 100.037 29.764 100.285 29.62C100.533 29.468 100.713 29.248 100.825 28.96L101.113 29.824C100.977 30.24 100.729 30.556 100.369 30.772C100.009 30.988 99.5451 31.096 98.9771 31.096Z" fill="white"/>
</svg>
