<svg width="153" height="69" viewBox="0 0 153 69" fill="none" xmlns="http://www.w3.org/2000/svg">
<rect width="153" height="69" rx="17" fill="#FF6E0E"/>
<path d="M44.2455 53.5264C43.2457 52.7988 42.6347 51.6342 42.7611 50.4042C42.9448 48.6167 43.3396 46.836 43.7396 45.3949C44.198 43.7433 44.5372 42.0494 44.5372 40.3353V38.5278C44.5372 37.6062 44.4588 36.6862 44.3028 35.7779C44.042 34.2595 43.5665 32.7859 42.8906 31.4015L41.0851 27.703L38.8806 23.9002C38.47 23.1919 38.1764 22.422 38.0111 21.6202L37.7745 20.4724C37.4849 19.0675 37.8117 17.606 38.672 16.4582C39.4171 15.4641 40.5052 14.7825 41.7249 14.5458L43.0758 14.2836C44.0429 14.0959 45.035 14.0763 46.0087 14.2254L48.3882 14.59C49.7929 14.8052 51.174 15.1533 52.5129 15.6297L54.612 16.3765C58.1341 17.6296 61.4896 19.3086 64.6041 21.3763L67.5522 23.3335C70.401 25.2248 73.0154 27.4472 75.3408 29.9543L76.9642 31.7045C77.3138 32.0814 77.6355 32.4834 77.9267 32.9072C78.8768 34.29 79.4841 35.8792 79.6985 37.5432L79.8467 38.6936C79.9482 39.4814 79.9182 40.2805 79.7578 41.0584C79.5052 42.2839 78.9365 43.4219 78.1082 44.3596L77.4894 45.0602C75.004 47.4717 72.0599 49.3599 68.8315 50.6129L64.3085 52.3684L61.6145 53.0722C57.9857 54.0202 54.2505 54.5 50.5 54.5L46.3001 54.2603C45.559 54.218 44.8457 53.9632 44.2455 53.5264Z" fill="white" stroke="white" stroke-width="3"/>
<path d="M33.8243 30.3121C34.0568 30.1993 34.2508 30.0203 34.3819 29.7976L34.8408 29.0185C35.2306 28.3566 35.4362 27.6024 35.4362 26.8343V26.1805V25.9256C35.4362 25.1152 35.108 24.3394 34.5264 23.7751C34.2975 23.553 34.0346 23.3689 33.7477 23.2297L32.9687 22.8518C32.5224 22.6352 32.0961 22.3795 31.695 22.0876L31.0426 21.6128L29.5726 20.6619C29.303 20.4875 28.9888 20.3947 28.6677 20.3947C28.3732 20.3947 28.084 20.3167 27.8295 20.1685L27.4335 19.938C26.9197 19.6388 26.3357 19.4812 25.7411 19.4812H24.4521H22.883C22.1233 19.4812 21.4342 19.9505 21.1447 20.6528C21.0501 20.8823 21 21.1315 21 21.3797V21.5968C21 22.2022 21.1835 22.7934 21.5264 23.2925L21.6277 23.4398L23.1968 25.2669L26.0213 28.0075L27.5904 29.2256L28.2784 29.6261C28.8617 29.9657 29.4979 30.2048 30.1605 30.3333C30.5385 30.4067 30.9225 30.4436 31.3075 30.4436H32.2979H33.2518C33.4502 30.4436 33.6459 30.3986 33.8243 30.3121Z" fill="white" stroke="white"/>
<path d="M52.795 43.12C52.105 43.12 51.44 43.04 50.8 42.88C50.17 42.71 49.67 42.5 49.3 42.25L50.08 40.57C50.45 40.8 50.885 40.99 51.385 41.14C51.895 41.28 52.395 41.35 52.885 41.35C53.425 41.35 53.805 41.285 54.025 41.155C54.255 41.025 54.37 40.845 54.37 40.615C54.37 40.425 54.28 40.285 54.1 40.195C53.93 40.095 53.7 40.02 53.41 39.97C53.12 39.92 52.8 39.87 52.45 39.82C52.11 39.77 51.765 39.705 51.415 39.625C51.065 39.535 50.745 39.405 50.455 39.235C50.165 39.065 49.93 38.835 49.75 38.545C49.58 38.255 49.495 37.88 49.495 37.42C49.495 36.91 49.64 36.46 49.93 36.07C50.23 35.68 50.66 35.375 51.22 35.155C51.78 34.925 52.45 34.81 53.23 34.81C53.78 34.81 54.34 34.87 54.91 34.99C55.48 35.11 55.955 35.285 56.335 35.515L55.555 37.18C55.165 36.95 54.77 36.795 54.37 36.715C53.98 36.625 53.6 36.58 53.23 36.58C52.71 36.58 52.33 36.65 52.09 36.79C51.85 36.93 51.73 37.11 51.73 37.33C51.73 37.53 51.815 37.68 51.985 37.78C52.165 37.88 52.4 37.96 52.69 38.02C52.98 38.08 53.295 38.135 53.635 38.185C53.985 38.225 54.335 38.29 54.685 38.38C55.035 38.47 55.35 38.6 55.63 38.77C55.92 38.93 56.155 39.155 56.335 39.445C56.515 39.725 56.605 40.095 56.605 40.555C56.605 41.055 56.455 41.5 56.155 41.89C55.855 42.27 55.42 42.57 54.85 42.79C54.29 43.01 53.605 43.12 52.795 43.12ZM61.4538 43.12C60.7838 43.12 60.1838 42.99 59.6538 42.73C59.1338 42.47 58.7288 42.075 58.4388 41.545C58.1488 41.005 58.0038 40.32 58.0038 39.49V34.93H60.3438V39.145C60.3438 39.815 60.4838 40.31 60.7638 40.63C61.0538 40.94 61.4588 41.095 61.9788 41.095C62.3388 41.095 62.6588 41.02 62.9388 40.87C63.2188 40.71 63.4388 40.47 63.5988 40.15C63.7588 39.82 63.8388 39.41 63.8388 38.92V34.93H66.1788V43H63.9588V40.78L64.3638 41.425C64.0938 41.985 63.6938 42.41 63.1638 42.7C62.6438 42.98 62.0738 43.12 61.4538 43.12ZM68.3466 43V34.93H70.6866V43H68.3466ZM69.5166 33.805C69.0866 33.805 68.7366 33.68 68.4666 33.43C68.1966 33.18 68.0616 32.87 68.0616 32.5C68.0616 32.13 68.1966 31.82 68.4666 31.57C68.7366 31.32 69.0866 31.195 69.5166 31.195C69.9466 31.195 70.2966 31.315 70.5666 31.555C70.8366 31.785 70.9716 32.085 70.9716 32.455C70.9716 32.845 70.8366 33.17 70.5666 33.43C70.3066 33.68 69.9566 33.805 69.5166 33.805ZM76.1583 43.12C75.2083 43.12 74.4683 42.88 73.9383 42.4C73.4083 41.91 73.1433 41.185 73.1433 40.225V33.145H75.4833V40.195C75.4833 40.535 75.5733 40.8 75.7533 40.99C75.9333 41.17 76.1783 41.26 76.4883 41.26C76.8583 41.26 77.1733 41.16 77.4333 40.96L78.0633 42.61C77.8233 42.78 77.5333 42.91 77.1933 43C76.8633 43.08 76.5183 43.12 76.1583 43.12ZM71.8983 36.91V35.11H77.4933V36.91H71.8983Z" fill="#FF6E0E"/>
<path d="M92.132 36.448C92.644 36.448 93.096 36.552 93.488 36.76C93.888 36.96 94.2 37.272 94.424 37.696C94.656 38.112 94.772 38.648 94.772 39.304V43H92.9V39.592C92.9 39.072 92.792 38.688 92.576 38.44C92.36 38.192 92.056 38.068 91.664 38.068C91.392 38.068 91.148 38.132 90.932 38.26C90.716 38.38 90.548 38.564 90.428 38.812C90.308 39.06 90.248 39.376 90.248 39.76V43H88.376V39.592C88.376 39.072 88.268 38.688 88.052 38.44C87.844 38.192 87.544 38.068 87.152 38.068C86.88 38.068 86.636 38.132 86.42 38.26C86.204 38.38 86.036 38.564 85.916 38.812C85.796 39.06 85.736 39.376 85.736 39.76V43H83.864V36.544H85.652V38.308L85.316 37.792C85.54 37.352 85.856 37.02 86.264 36.796C86.68 36.564 87.152 36.448 87.68 36.448C88.272 36.448 88.788 36.6 89.228 36.904C89.676 37.2 89.972 37.656 90.116 38.272L89.456 38.092C89.672 37.588 90.016 37.188 90.488 36.892C90.968 36.596 91.516 36.448 92.132 36.448ZM99.7008 43.096C98.9648 43.096 98.3168 42.952 97.7568 42.664C97.2048 42.376 96.7768 41.984 96.4728 41.488C96.1688 40.984 96.0168 40.412 96.0168 39.772C96.0168 39.124 96.1648 38.552 96.4608 38.056C96.7648 37.552 97.1768 37.16 97.6968 36.88C98.2168 36.592 98.8048 36.448 99.4608 36.448C100.093 36.448 100.661 36.584 101.165 36.856C101.677 37.12 102.081 37.504 102.377 38.008C102.673 38.504 102.821 39.1 102.821 39.796C102.821 39.868 102.817 39.952 102.809 40.048C102.801 40.136 102.793 40.22 102.785 40.3H97.5408V39.208H101.801L101.081 39.532C101.081 39.196 101.013 38.904 100.877 38.656C100.741 38.408 100.553 38.216 100.313 38.08C100.073 37.936 99.7928 37.864 99.4728 37.864C99.1528 37.864 98.8688 37.936 98.6208 38.08C98.3808 38.216 98.1928 38.412 98.0568 38.668C97.9208 38.916 97.8528 39.212 97.8528 39.556V39.844C97.8528 40.196 97.9288 40.508 98.0808 40.78C98.2408 41.044 98.4608 41.248 98.7408 41.392C99.0288 41.528 99.3648 41.596 99.7488 41.596C100.093 41.596 100.393 41.544 100.649 41.44C100.913 41.336 101.153 41.18 101.369 40.972L102.365 42.052C102.069 42.388 101.697 42.648 101.249 42.832C100.801 43.008 100.285 43.096 99.7008 43.096ZM106.839 43.096C106.231 43.096 105.683 42.96 105.195 42.688C104.707 42.408 104.319 42.02 104.031 41.524C103.751 41.028 103.611 40.444 103.611 39.772C103.611 39.092 103.751 38.504 104.031 38.008C104.319 37.512 104.707 37.128 105.195 36.856C105.683 36.584 106.231 36.448 106.839 36.448C107.383 36.448 107.859 36.568 108.267 36.808C108.675 37.048 108.991 37.412 109.215 37.9C109.439 38.388 109.551 39.012 109.551 39.772C109.551 40.524 109.443 41.148 109.227 41.644C109.011 42.132 108.699 42.496 108.291 42.736C107.891 42.976 107.407 43.096 106.839 43.096ZM107.163 41.56C107.467 41.56 107.743 41.488 107.991 41.344C108.239 41.2 108.435 40.996 108.579 40.732C108.731 40.46 108.807 40.14 108.807 39.772C108.807 39.396 108.731 39.076 108.579 38.812C108.435 38.548 108.239 38.344 107.991 38.2C107.743 38.056 107.467 37.984 107.163 37.984C106.851 37.984 106.571 38.056 106.323 38.2C106.075 38.344 105.875 38.548 105.723 38.812C105.579 39.076 105.507 39.396 105.507 39.772C105.507 40.14 105.579 40.46 105.723 40.732C105.875 40.996 106.075 41.2 106.323 41.344C106.571 41.488 106.851 41.56 107.163 41.56ZM108.855 43V41.68L108.891 39.76L108.771 37.852V34.096H110.643V43H108.855ZM112.376 43V36.544H114.248V43H112.376ZM113.312 35.644C112.968 35.644 112.688 35.544 112.472 35.344C112.256 35.144 112.148 34.896 112.148 34.6C112.148 34.304 112.256 34.056 112.472 33.856C112.688 33.656 112.968 33.556 113.312 33.556C113.656 33.556 113.936 33.652 114.152 33.844C114.368 34.028 114.476 34.268 114.476 34.564C114.476 34.876 114.368 35.136 114.152 35.344C113.944 35.544 113.664 35.644 113.312 35.644ZM119.945 43V41.74L119.825 41.464V39.208C119.825 38.808 119.701 38.496 119.453 38.272C119.213 38.048 118.841 37.936 118.337 37.936C117.993 37.936 117.653 37.992 117.317 38.104C116.989 38.208 116.709 38.352 116.477 38.536L115.805 37.228C116.157 36.98 116.581 36.788 117.077 36.652C117.573 36.516 118.077 36.448 118.589 36.448C119.573 36.448 120.337 36.68 120.881 37.144C121.425 37.608 121.697 38.332 121.697 39.316V43H119.945ZM117.977 43.096C117.473 43.096 117.041 43.012 116.681 42.844C116.321 42.668 116.045 42.432 115.853 42.136C115.661 41.84 115.565 41.508 115.565 41.14C115.565 40.756 115.657 40.42 115.841 40.132C116.033 39.844 116.333 39.62 116.741 39.46C117.149 39.292 117.681 39.208 118.337 39.208H120.053V40.3H118.541C118.101 40.3 117.797 40.372 117.629 40.516C117.469 40.66 117.389 40.84 117.389 41.056C117.389 41.296 117.481 41.488 117.665 41.632C117.857 41.768 118.117 41.836 118.445 41.836C118.757 41.836 119.037 41.764 119.285 41.62C119.533 41.468 119.713 41.248 119.825 40.96L120.113 41.824C119.977 42.24 119.729 42.556 119.369 42.772C119.009 42.988 118.545 43.096 117.977 43.096Z" fill="white"/>
</svg>
